<?xml version="1.0" encoding="utf-8"?>
<!-- Generator: Adobe Illustrator 16.0.0, SVG Export Plug-In . SVG Version: 6.00 Build 0)  -->
<!DOCTYPE svg PUBLIC "-//W3C//DTD SVG 1.1//EN" "http://www.w3.org/Graphics/SVG/1.1/DTD/svg11.dtd">
<svg version="1.1" id="Layer_1" xmlns="http://www.w3.org/2000/svg" xmlns:xlink="http://www.w3.org/1999/xlink" x="0px" y="0px"
	 width="128px" height="128px" viewBox="68.5 84.5 128 128" enable-background="new 68.5 84.5 128 128" xml:space="preserve">
<path fill="#2C2C29" d="M108.5,161.597l4.106-5.521c4.8,2.325,7.847,4.087,13.247,7.94c10.144-11.518,16.852-17.357,29.306-25.111
	l1.341,3.07c-10.275,8.973-17.803,18.957-28.641,38.4C121.175,172.5,116.713,169.209,108.5,161.597z M180.5,105.3v100.8h-96V105.3
	h22.396L94.1,118.781V196.5H170.9v-77.719L158.375,105.3H180.5z M162.997,124.5l-15.896-17.128v-1.969
	c0.005-8.007-6.492-14.503-14.498-14.503c-8.007,0-14.504,6.394-14.504,14.399l0.005,2.072L102.275,124.5H162.997z M132.5,100.5
	c2.653,0,4.8,2.151,4.8,4.8s-2.146,4.8-4.8,4.8s-4.8-2.151-4.8-4.8S129.847,100.5,132.5,100.5z"/>
</svg>
