<?xml version="1.0" encoding="utf-8"?>
<!-- Generator: Adobe Illustrator 16.0.0, SVG Export Plug-In . SVG Version: 6.00 Build 0)  -->
<!DOCTYPE svg PUBLIC "-//W3C//DTD SVG 1.1//EN" "http://www.w3.org/Graphics/SVG/1.1/DTD/svg11.dtd">
<svg version="1.1" id="Layer_1" xmlns="http://www.w3.org/2000/svg" xmlns:xlink="http://www.w3.org/1999/xlink" x="0px" y="0px"
	 width="24px" height="24px" viewBox="0 0 24 24" enable-background="new 0 0 24 24" xml:space="preserve">
<path d="M23,12c0,1.042-0.154,2.045-0.425,3h-2.101C20.809,14.061,21,13.053,21,12c0-4.962-4.037-9-9-9
	c-1.706,0-3.296,0.484-4.654,1.314L9.203,7H2.209l2.152-7l1.85,2.673C7.894,1.624,9.869,1,12,1C18.074,1,23,5.925,23,12z
	 M16.646,19.691C15.289,20.518,13.702,21,12,21c-4.963,0-9-4.038-9-9c0-1.053,0.191-2.06,0.525-3h-2.1C1.154,9.955,1,10.958,1,12
	c0,6.075,4.925,11,11,11c2.127,0,4.1-0.621,5.779-1.667L19.633,24l2.152-6.989h-6.994L16.646,19.691z"/>
<polygon fill="#4E97CC" points="16,14.584 13.408,11.99 16,9.403 14.584,8 11.993,10.589 9.405,8 8,9.405 10.593,12.003 8,14.596 
	9.405,16 12.006,13.404 14.598,16 "/>
</svg>
