<?xml version="1.0" encoding="utf-8"?>
<!-- Generator: Adobe Illustrator 16.0.0, SVG Export Plug-In . SVG Version: 6.00 Build 0)  -->
<!DOCTYPE svg PUBLIC "-//W3C//DTD SVG 1.1//EN" "http://www.w3.org/Graphics/SVG/1.1/DTD/svg11.dtd">
<svg version="1.1" id="Layer_1" xmlns="http://www.w3.org/2000/svg" xmlns:xlink="http://www.w3.org/1999/xlink" x="0px" y="0px"
	 width="24px" height="24px" viewBox="0 0 24 24" enable-background="new 0 0 24 24" xml:space="preserve">
<path d="M18.708,12c0,0.635-0.094,1.247-0.259,1.829h-1.28c0.203-0.572,0.319-1.188,0.319-1.829c0-3.026-2.461-5.489-5.488-5.489
	c-1.041,0-2.01,0.295-2.838,0.801l1.132,1.638H6.029l1.312-4.269l1.127,1.63C9.496,5.672,10.7,5.292,12,5.292
	C15.704,5.292,18.708,8.295,18.708,12z M14.833,16.69c-0.827,0.504-1.795,0.798-2.833,0.798c-3.026,0-5.489-2.462-5.489-5.488
	c0-0.643,0.116-1.256,0.32-1.83H5.551C5.385,10.752,5.292,11.365,5.292,12c0,3.705,3.004,6.708,6.708,6.708
	c1.298,0,2.5-0.378,3.524-1.017l1.131,1.627l1.312-4.263h-4.265L14.833,16.69z"/>
<g>
	<path fill="#4E97CC" d="M12,2.163c5.425,0,9.838,4.413,9.838,9.837c0,5.425-4.413,9.838-9.838,9.838
		c-5.424,0-9.837-4.413-9.837-9.838C2.163,6.576,6.576,2.163,12,2.163 M12,1.062C5.959,1.062,1.062,5.959,1.062,12
		S5.959,22.938,12,22.938S22.938,18.041,22.938,12S18.041,1.062,12,1.062L12,1.062z"/>
</g>
</svg>
