<?xml version="1.0" encoding="utf-8"?>
<!-- Generator: Adobe Illustrator 16.0.0, SVG Export Plug-In . SVG Version: 6.00 Build 0)  -->
<!DOCTYPE svg PUBLIC "-//W3C//DTD SVG 1.1//EN" "http://www.w3.org/Graphics/SVG/1.1/DTD/svg11.dtd">
<svg version="1.1" id="Layer_1" xmlns="http://www.w3.org/2000/svg" xmlns:xlink="http://www.w3.org/1999/xlink" x="0px" y="0px"
	 width="128px" height="128px" viewBox="-52 -52 128 128" enable-background="new -52 -52 128 128" xml:space="preserve">
<g>
	<path d="M41.438,12c0,2.786-0.411,5.473-1.136,8.027h-5.618c0.892-2.512,1.401-5.216,1.401-8.027c0-13.277-10.8-24.09-24.086-24.09
		c-4.568,0-8.82,1.299-12.454,3.519l4.967,7.187h-18.716l5.756-18.732l4.946,7.153C1.012-15.771,6.296-17.438,12-17.438
		C28.256-17.438,41.438-4.26,41.438,12z M24.433,32.58c-3.63,2.211-7.877,3.506-12.433,3.506c-13.277,0-24.09-10.809-24.09-24.086
		c0-2.82,0.51-5.512,1.405-8.031h-5.618c-0.729,2.554-1.136,5.245-1.136,8.031c0,16.26,13.183,29.438,29.438,29.438
		c5.695,0,10.972-1.658,15.463-4.461l4.963,7.14l5.76-18.712H19.47L24.433,32.58z"/>
	<g>
		<path fill="#4E97CC" d="M12-31.17c23.807,0,43.174,19.367,43.174,43.17c0,23.807-19.367,43.174-43.174,43.174
			c-23.803,0-43.17-19.367-43.17-43.174C-31.17-11.803-11.803-31.17,12-31.17 M12-36c-26.512,0-48,21.488-48,48s21.488,48,48,48
			s48-21.488,48-48S38.512-36,12-36L12-36z"/>
	</g>
</g>
</svg>
